<svg width="18" height="18" viewBox="0 0 18 18" fill="none" xmlns="http://www.w3.org/2000/svg">
<path d="M17.4009 0.613295C16.8809 0.0932946 16.0409 0.0932946 15.5209 0.613295L9.00094 7.11996L2.48094 0.599961C1.96094 0.0799609 1.12094 0.0799609 0.600937 0.599961C0.0809375 1.11996 0.0809375 1.95996 0.600937 2.47996L7.12094 8.99996L0.600937 15.52C0.0809375 16.04 0.0809375 16.88 0.600937 17.4C1.12094 17.92 1.96094 17.92 2.48094 17.4L9.00094 10.88L15.5209 17.4C16.0409 17.92 16.8809 17.92 17.4009 17.4C17.9209 16.88 17.9209 16.04 17.4009 15.52L10.8809 8.99996L17.4009 2.47996C17.9076 1.97329 17.9076 1.11996 17.4009 0.613295V0.613295Z" fill="#1C2E45" fill-opacity="0.6"/>
</svg>
