<svg width="28" height="29" viewBox="0 0 28 29" fill="none" xmlns="http://www.w3.org/2000/svg">
<path d="M23.3335 5.16699H4.66683C3.3835 5.16699 2.34516 6.21699 2.34516 7.50033L2.3335 21.5003C2.3335 22.7837 3.3835 23.8337 4.66683 23.8337H23.3335C24.6168 23.8337 25.6668 22.7837 25.6668 21.5003V7.50033C25.6668 6.21699 24.6168 5.16699 23.3335 5.16699ZM22.8668 10.1253L14.6185 15.282C14.2452 15.5153 13.7552 15.5153 13.3818 15.282L5.1335 10.1253C4.84183 9.93866 4.66683 9.62366 4.66683 9.28533C4.66683 8.50366 5.5185 8.03699 6.1835 8.44532L14.0002 13.3337L21.8168 8.44532C22.4818 8.03699 23.3335 8.50366 23.3335 9.28533C23.3335 9.62366 23.1585 9.93866 22.8668 10.1253Z" fill="#1C2E45" fill-opacity="0.6"/>
</svg>
