<?xml version="1.0" standalone="no"?>
<!DOCTYPE svg PUBLIC "-//W3C//DTD SVG 20010904//EN"
 "http://www.w3.org/TR/2001/REC-SVG-20010904/DTD/svg10.dtd">
<svg version="1.0" xmlns="http://www.w3.org/2000/svg"
 width="512.000000pt" height="512.000000pt" viewBox="0 0 512.000000 512.000000"
 preserveAspectRatio="xMidYMid meet">

<g transform="translate(0.000000,512.000000) scale(0.100000,-0.100000)"
fill="#000000" stroke="none">
<path d="M1012 4540 c-109 -29 -187 -75 -272 -160 -87 -86 -132 -164 -160
-276 -25 -98 -25 -190 0 -288 28 -112 73 -190 160 -276 86 -87 164 -132 276
-160 75 -20 117 -20 1691 -20 l1613 0 0 -1280 0 -1280 -1605 0 c-1600 0 -1606
0 -1668 21 -113 38 -192 117 -227 228 -20 62 -20 90 -20 1138 0 974 -2 1078
-16 1109 -29 60 -105 82 -165 47 -62 -37 -59 24 -59 -1165 0 -1048 1 -1087 20
-1162 28 -112 73 -190 160 -277 53 -53 96 -86 147 -111 146 -73 26 -69 1910
-66 l1693 3 32 33 33 32 0 1450 0 1450 -33 32 -32 33 -1708 5 c-1647 5 -1709
6 -1752 24 -104 44 -178 123 -210 225 -25 80 -25 142 0 222 35 111 114 190
227 228 62 21 71 21 1428 21 l1365 0 0 -231 c0 -254 5 -280 59 -312 60 -35
137 -12 166 50 14 28 15 79 13 348 l-3 315 -33 32 -32 33 -1463 2 c-1412 2
-1464 1 -1535 -17z"/>
<path d="M1718 2644 c-35 -18 -58 -62 -58 -109 0 -29 9 -45 46 -85 l47 -50
-47 -50 c-37 -40 -46 -56 -46 -85 0 -74 51 -125 125 -125 29 0 45 9 85 46 l50
47 50 -47 c40 -37 56 -46 85 -46 74 0 125 51 125 125 0 29 -9 45 -46 85 l-47
50 47 50 c37 40 46 56 46 85 0 74 -51 125 -125 125 -29 0 -45 -9 -85 -46 l-50
-47 -50 47 c-41 38 -55 46 -87 46 -21 -1 -50 -7 -65 -16z"/>
<path d="M2998 2644 c-35 -18 -58 -62 -58 -109 0 -29 9 -45 46 -85 l47 -50
-47 -50 c-51 -55 -59 -95 -31 -150 19 -36 62 -60 110 -60 29 0 45 9 85 46 l50
47 50 -47 c40 -37 56 -46 85 -46 74 0 125 51 125 125 0 29 -9 45 -46 85 l-47
50 47 50 c51 55 59 95 31 150 -19 36 -62 60 -110 60 -29 0 -45 -9 -85 -46
l-50 -47 -50 47 c-41 38 -55 46 -87 46 -21 -1 -50 -7 -65 -16z"/>
<path d="M2380 1745 c-47 -8 -121 -26 -164 -40 -111 -36 -271 -121 -323 -170
-39 -38 -43 -46 -43 -89 0 -41 5 -53 34 -82 53 -53 96 -48 211 22 51 30 125
67 166 81 261 91 526 62 764 -81 110 -68 155 -73 206 -28 43 38 52 113 19 155
-28 36 -88 76 -186 126 -210 106 -450 143 -684 106z"/>
</g>
</svg>
