<svg width="17" height="18" viewBox="0 0 17 18" fill="none" xmlns="http://www.w3.org/2000/svg">
  <path d="M2.33335 8.58332V11.9167C2.33335 12.6083 2.89169 13.1667 3.58335 13.1667C4.27502 13.1667 4.83335 12.6083 4.83335 11.9167V8.58332C4.83335 7.89166 4.27502 7.33332 3.58335 7.33332C2.89169 7.33332 2.33335 7.89166 2.33335 8.58332ZM7.33335 8.58332V11.9167C7.33335 12.6083 7.89169 13.1667 8.58335 13.1667C9.27502 13.1667 9.83335 12.6083 9.83335 11.9167V8.58332C9.83335 7.89166 9.27502 7.33332 8.58335 7.33332C7.89169 7.33332 7.33335 7.89166 7.33335 8.58332ZM1.91669 17.3333H15.25C15.9417 17.3333 16.5 16.775 16.5 16.0833C16.5 15.3917 15.9417 14.8333 15.25 14.8333H1.91669C1.22502 14.8333 0.666687 15.3917 0.666687 16.0833C0.666687 16.775 1.22502 17.3333 1.91669 17.3333ZM12.3334 8.58332V11.9167C12.3334 12.6083 12.8917 13.1667 13.5834 13.1667C14.275 13.1667 14.8334 12.6083 14.8334 11.9167V8.58332C14.8334 7.89166 14.275 7.33332 13.5834 7.33332C12.8917 7.33332 12.3334 7.89166 12.3334 8.58332ZM7.80835 0.241655L1.22502 3.70832C0.883354 3.88332 0.666687 4.24166 0.666687 4.62499C0.666687 5.19999 1.13335 5.66666 1.70835 5.66666H15.4667C16.0334 5.66666 16.5 5.19999 16.5 4.62499C16.5 4.24166 16.2834 3.88332 15.9417 3.70832L9.35835 0.241655C8.87502 -0.0166784 8.29169 -0.0166784 7.80835 0.241655V0.241655Z" fill="white"/>
</svg>