<svg width="24" height="25" viewBox="0 0 24 25" fill="none" xmlns="http://www.w3.org/2000/svg">
<path d="M21.3335 0.833008H2.66683C1.3835 0.833008 0.345163 1.88301 0.345163 3.16634L0.333496 24.1663L5.00016 19.4997H21.3335C22.6168 19.4997 23.6668 18.4497 23.6668 17.1663V3.16634C23.6668 1.88301 22.6168 0.833008 21.3335 0.833008ZM17.8335 14.833H6.16683C5.52516 14.833 5.00016 14.308 5.00016 13.6663C5.00016 13.0247 5.52516 12.4997 6.16683 12.4997H17.8335C18.4752 12.4997 19.0002 13.0247 19.0002 13.6663C19.0002 14.308 18.4752 14.833 17.8335 14.833ZM17.8335 11.333H6.16683C5.52516 11.333 5.00016 10.808 5.00016 10.1663C5.00016 9.52468 5.52516 8.99968 6.16683 8.99968H17.8335C18.4752 8.99968 19.0002 9.52468 19.0002 10.1663C19.0002 10.808 18.4752 11.333 17.8335 11.333ZM17.8335 7.83301H6.16683C5.52516 7.83301 5.00016 7.30801 5.00016 6.66634C5.00016 6.02467 5.52516 5.49967 6.16683 5.49967H17.8335C18.4752 5.49967 19.0002 6.02467 19.0002 6.66634C19.0002 7.30801 18.4752 7.83301 17.8335 7.83301Z" fill="#1C2E45" fill-opacity="0.6"/>
</svg>
