<svg width="24" height="24" viewBox="0 0 24 24" fill="none" xmlns="http://www.w3.org/2000/svg">
<rect width="24" height="24" rx="12" fill="url(#paint0_linear_9_4454)"/>
<path d="M6.66667 12.6667H10.6667C11.0333 12.6667 11.3333 12.3667 11.3333 12V6.66667C11.3333 6.3 11.0333 6 10.6667 6H6.66667C6.3 6 6 6.3 6 6.66667V12C6 12.3667 6.3 12.6667 6.66667 12.6667ZM6.66667 18H10.6667C11.0333 18 11.3333 17.7 11.3333 17.3333V14.6667C11.3333 14.3 11.0333 14 10.6667 14H6.66667C6.3 14 6 14.3 6 14.6667V17.3333C6 17.7 6.3 18 6.66667 18ZM13.3333 18H17.3333C17.7 18 18 17.7 18 17.3333V12C18 11.6333 17.7 11.3333 17.3333 11.3333H13.3333C12.9667 11.3333 12.6667 11.6333 12.6667 12V17.3333C12.6667 17.7 12.9667 18 13.3333 18ZM12.6667 6.66667V9.33333C12.6667 9.7 12.9667 10 13.3333 10H17.3333C17.7 10 18 9.7 18 9.33333V6.66667C18 6.3 17.7 6 17.3333 6H13.3333C12.9667 6 12.6667 6.3 12.6667 6.66667Z" fill="white"/>
<defs>
<linearGradient id="paint0_linear_9_4454" x1="12" y1="0" x2="12" y2="24" gradientUnits="userSpaceOnUse">
<stop stop-color="#E2EBEF"/>
<stop offset="1" stop-color="#9BB8C6"/>
</linearGradient>
</defs>
</svg>
