<svg width="17" height="21" viewBox="0 0 17 21" fill="none" xmlns="http://www.w3.org/2000/svg">
<path d="M8.99997 4.00003V1.21003C8.99997 0.760031 9.53997 0.540031 9.84997 0.860031L13.65 4.65003C13.85 4.85003 13.85 5.16003 13.65 5.36003L9.85997 9.15003C9.53997 9.46003 8.99997 9.24003 8.99997 8.79003V6.00003C5.26997 6.00003 2.31997 9.42003 3.13997 13.29C3.60997 15.56 5.44997 17.39 7.70997 17.86C11.28 18.61 14.46 16.16 14.94 12.85C15.01 12.37 15.43 12 15.92 12C16.52 12 17 12.53 16.92 13.13C16.3 17.52 12.12 20.77 7.38997 19.85C4.26997 19.24 1.75997 16.73 1.14997 13.61C0.159972 8.48003 4.05997 4.00003 8.99997 4.00003Z" fill="#1B2B41" fill-opacity="0.72"/>
</svg>
