<svg width="14" height="14" viewBox="0 0 14 14" fill="none" xmlns="http://www.w3.org/2000/svg">
<path d="M3.24973 3.25002H10.7497V4.59252C10.7497 4.93002 11.1547 5.09502 11.3872 4.85502L13.4797 2.76252C13.6297 2.61252 13.6297 2.38002 13.4797 2.23002L11.3872 0.137516C11.1547 -0.0949835 10.7497 0.0700166 10.7497 0.407517V1.75002H2.49973C2.08723 1.75002 1.74973 2.08752 1.74973 2.50002V5.50002C1.74973 5.91252 2.08723 6.25002 2.49973 6.25002C2.91223 6.25002 3.24973 5.91252 3.24973 5.50002V3.25002ZM10.7497 10.75H3.24973V9.40752C3.24973 9.07001 2.84473 8.90501 2.61223 9.14501L0.519727 11.2375C0.369727 11.3875 0.369727 11.62 0.519727 11.77L2.61223 13.8625C2.84473 14.095 3.24973 13.93 3.24973 13.5925V12.25H11.4997C11.9122 12.25 12.2497 11.9125 12.2497 11.5V8.50002C12.2497 8.08752 11.9122 7.75002 11.4997 7.75002C11.0872 7.75002 10.7497 8.08752 10.7497 8.50002V10.75Z" fill="#1B2B41" fill-opacity="0.72"/>
</svg>