<svg width="16" height="17" viewBox="0 0 16 17" fill="none" xmlns="http://www.w3.org/2000/svg">
<path d="M11.4422 10.9646H10.7201L10.4641 10.7179C11.561 9.43897 12.1277 7.6941 11.817 5.83961C11.3873 3.29996 9.26668 1.27189 6.70725 0.961288C2.8407 0.486245 -0.41342 3.73846 0.0619008 7.60275C0.372688 10.1607 2.40194 12.2801 4.94308 12.7095C6.79866 13.0201 8.54455 12.4537 9.82426 11.3574L10.0711 11.6132V12.3349L13.9559 16.2175C14.3307 16.592 14.9431 16.592 15.3179 16.2175C15.6927 15.8429 15.6927 15.2308 15.3179 14.8563L11.4422 10.9646ZM5.95771 10.9646C3.68165 10.9646 1.84435 9.12836 1.84435 6.85364C1.84435 4.57892 3.68165 2.7427 5.95771 2.7427C8.23377 2.7427 10.0711 4.57892 10.0711 6.85364C10.0711 9.12836 8.23377 10.9646 5.95771 10.9646Z" fill="#1B2B41" fill-opacity="0.72"/>
</svg>
