<svg width="35" height="34" viewBox="0 0 35 34" fill="none" xmlns="http://www.w3.org/2000/svg">
<rect x="0.5" width="34" height="34" rx="17" fill="url(#paint0_linear_9_3775)"/>
<path d="M8.56402 11.3701C8.56402 10.9354 8.91639 10.5831 9.35106 10.5831H21.9436C22.3783 10.5831 22.7307 10.9354 22.7307 11.3701V19.4684C22.7307 19.9511 22.3394 20.3423 21.8568 20.3423H12.8032C10.4619 20.3423 8.56402 18.4444 8.56402 16.1032V11.3701Z" stroke="white" stroke-width="0.944444"/>
<path d="M8.56402 12.4717H25.7214C26.1561 12.4717 26.5085 12.8241 26.5085 13.2588V22.7032C26.5085 23.1379 26.1561 23.4903 25.7214 23.4903H12.8032C10.4619 23.4903 8.56402 21.5923 8.56402 19.2511V12.4717Z" fill="url(#paint1_linear_9_3775)" stroke="white" stroke-width="0.944444"/>
<path d="M14.3887 17.9814L20.685 17.9814" stroke="white" stroke-width="0.944444" stroke-linecap="round" stroke-linejoin="round"/>
<defs>
<linearGradient id="paint0_linear_9_3775" x1="1.03125" y1="1.54027" x2="37.9394" y2="6.08823" gradientUnits="userSpaceOnUse">
<stop stop-color="#8B75FF"/>
<stop offset="1" stop-color="#6A89FF"/>
</linearGradient>
<linearGradient id="paint1_linear_9_3775" x1="8.38694" y1="12.5415" x2="28.4436" y2="16.4438" gradientUnits="userSpaceOnUse">
<stop stop-color="#8B75FF"/>
<stop offset="1" stop-color="#6A89FF"/>
</linearGradient>
</defs>
</svg>
