<svg width="35" height="35" viewBox="0 0 35 35" fill="none" xmlns="http://www.w3.org/2000/svg">
<rect width="34.5728" height="34.5728" rx="17.2864" fill="url(#paint0_linear_9_6014)"/>
<path d="M24.9681 9.60358H9.60235C8.53636 9.60358 7.69124 10.4583 7.69124 11.5243L7.68164 23.0486C7.68164 24.1146 8.53636 24.9693 9.60235 24.9693H24.9681C26.0341 24.9693 26.8888 24.1146 26.8888 23.0486V11.5243C26.8888 10.4583 26.0341 9.60358 24.9681 9.60358ZM24.0077 23.0486H10.5627C10.0345 23.0486 9.60235 22.6164 9.60235 22.0882V17.2864H24.9681V22.0882C24.9681 22.6164 24.5359 23.0486 24.0077 23.0486ZM24.9681 13.445H9.60235V12.4846C9.60235 11.9564 10.0345 11.5243 10.5627 11.5243H24.0077C24.5359 11.5243 24.9681 11.9564 24.9681 12.4846V13.445Z" fill="white"/>
<defs>
<linearGradient id="paint0_linear_9_6014" x1="0.540201" y1="1.56622" x2="38.0702" y2="6.19081" gradientUnits="userSpaceOnUse">
<stop stop-color="#8B75FF"/>
<stop offset="1" stop-color="#6A89FF"/>
</linearGradient>
</defs>
</svg>
