<svg width="92" height="92" viewBox="0 0 92 92" fill="none" xmlns="http://www.w3.org/2000/svg">
<path d="M46.0003 0.166992C20.7003 0.166992 0.166992 20.7003 0.166992 46.0003C0.166992 71.3003 20.7003 91.8337 46.0003 91.8337C71.3003 91.8337 91.8337 71.3003 91.8337 46.0003C91.8337 20.7003 71.3003 0.166992 46.0003 0.166992ZM33.5795 65.6628L17.1253 49.2087C15.3378 47.4212 15.3378 44.5337 17.1253 42.7462C18.9128 40.9587 21.8003 40.9587 23.5878 42.7462L36.8337 55.9462L68.367 24.4128C70.1545 22.6253 73.042 22.6253 74.8295 24.4128C76.617 26.2003 76.617 29.0878 74.8295 30.8753L40.042 65.6628C38.3003 67.4503 35.367 67.4503 33.5795 65.6628Z" fill="black" fill-opacity="1"/>
</svg>
