<svg width="35" height="35" viewBox="0 0 35 35" fill="none" xmlns="http://www.w3.org/2000/svg">
<rect y="0.13533" width="34.5728" height="34.5728" rx="17.2864" fill="url(#paint0_linear_9_6019)"/>
<path d="M17.6227 20.9271L20.3021 18.2477C20.5998 17.95 20.3885 17.4314 19.966 17.4314H18.2469V9.73891C18.2469 9.21071 17.8148 8.77855 17.2866 8.77855C16.7584 8.77855 16.3262 9.21071 16.3262 9.73891V17.4218H14.6072C14.175 17.4218 13.9637 17.9404 14.2711 18.2381L16.9505 20.9175C17.1329 21.1095 17.4402 21.1095 17.6227 20.9271ZM25.9298 8.77855H21.1184C20.5998 8.77855 20.1676 9.21071 20.1676 9.7293C20.1676 10.2575 20.5998 10.6801 21.1184 10.6801H24.9694C25.4976 10.6801 25.9298 11.1122 25.9298 11.6404V23.1935C25.9298 23.7217 25.4976 24.1539 24.9694 24.1539H9.60373C9.07553 24.1539 8.64337 23.7217 8.64337 23.1935V11.65C8.64337 11.1218 9.07553 10.6897 9.60373 10.6897H13.4548C13.9733 10.6897 14.4055 10.2575 14.4055 9.73891C14.4055 9.21071 13.9733 8.77855 13.4548 8.77855H8.64337C7.58698 8.77855 6.72266 9.64287 6.72266 10.6993V24.1443C6.72266 25.2006 7.58698 26.065 8.64337 26.065H25.9298C26.9862 26.065 27.8505 25.2006 27.8505 24.1443V10.6993C27.8505 9.64287 26.9862 8.77855 25.9298 8.77855Z" fill="white"/>
<defs>
<linearGradient id="paint0_linear_9_6019" x1="17.2864" y1="0.13533" x2="17.2864" y2="34.7082" gradientUnits="userSpaceOnUse">
<stop stop-color="#203B63"/>
<stop offset="1" stop-color="#04214B"/>
</linearGradient>
</defs>
</svg>
