<svg width="24" height="24" viewBox="0 0 24 24" fill="none" xmlns="http://www.w3.org/2000/svg">
<rect width="24" height="24" rx="12" fill="url(#paint0_linear_9_4444)"/>
<path d="M12.2337 14.4333L14.0937 12.5733C14.3003 12.3667 14.1537 12.0067 13.8603 12.0067H12.667V6.66667C12.667 6.3 12.367 6 12.0003 6C11.6337 6 11.3337 6.3 11.3337 6.66667V12H10.1403C9.84033 12 9.69366 12.36 9.90699 12.5667L11.767 14.4267C11.8937 14.56 12.107 14.56 12.2337 14.4333ZM18.0003 6H14.6603C14.3003 6 14.0003 6.3 14.0003 6.66C14.0003 7.02667 14.3003 7.32 14.6603 7.32H17.3337C17.7003 7.32 18.0003 7.62 18.0003 7.98667V16.0067C18.0003 16.3733 17.7003 16.6733 17.3337 16.6733H6.66699C6.30033 16.6733 6.00033 16.3733 6.00033 16.0067V7.99333C6.00033 7.62667 6.30033 7.32667 6.66699 7.32667H9.34033C9.70033 7.32667 10.0003 7.02667 10.0003 6.66667C10.0003 6.3 9.70033 6 9.34033 6H6.00033C5.26699 6 4.66699 6.6 4.66699 7.33333V16.6667C4.66699 17.4 5.26699 18 6.00033 18H18.0003C18.7337 18 19.3337 17.4 19.3337 16.6667V7.33333C19.3337 6.6 18.7337 6 18.0003 6Z" fill="white"/>
<defs>
<linearGradient id="paint0_linear_9_4444" x1="12" y1="0" x2="12" y2="24" gradientUnits="userSpaceOnUse">
<stop stop-color="#203B63"/>
<stop offset="1" stop-color="#04214B"/>
</linearGradient>
</defs>
</svg>
