<svg width="24" height="24" viewBox="0 0 24 24" fill="none" xmlns="http://www.w3.org/2000/svg">
<rect width="24" height="24" rx="12" fill="url(#paint0_linear_9_4439)"/>
<path d="M17.333 6.66675H6.66634C5.92634 6.66675 5.33967 7.26008 5.33967 8.00008L5.33301 16.0001C5.33301 16.7401 5.92634 17.3334 6.66634 17.3334H17.333C18.073 17.3334 18.6663 16.7401 18.6663 16.0001V8.00008C18.6663 7.26008 18.073 6.66675 17.333 6.66675ZM16.6663 16.0001H7.33301C6.96634 16.0001 6.66634 15.7001 6.66634 15.3334V12.0001H17.333V15.3334C17.333 15.7001 17.033 16.0001 16.6663 16.0001ZM17.333 9.33341H6.66634V8.66675C6.66634 8.30008 6.96634 8.00008 7.33301 8.00008H16.6663C17.033 8.00008 17.333 8.30008 17.333 8.66675V9.33341Z" fill="white"/>
<defs>
<linearGradient id="paint0_linear_9_4439" x1="0.375" y1="1.08725" x2="26.4278" y2="4.29758" gradientUnits="userSpaceOnUse">
<stop stop-color="#8B75FF"/>
<stop offset="1" stop-color="#6A89FF"/>
</linearGradient>
</defs>
</svg>
