<svg width="18" height="11" viewBox="0 0 18 11" fill="none" xmlns="http://www.w3.org/2000/svg">
<path d="M1 6.25049C1.55 6.25049 2 5.80049 2 5.25049C2 4.70049 1.55 4.25049 1 4.25049C0.45 4.25049 0 4.70049 0 5.25049C0 5.80049 0.45 6.25049 1 6.25049ZM1 10.2505C1.55 10.2505 2 9.80049 2 9.25049C2 8.70049 1.55 8.25049 1 8.25049C0.45 8.25049 0 8.70049 0 9.25049C0 9.80049 0.45 10.2505 1 10.2505ZM1 2.25049C1.55 2.25049 2 1.80049 2 1.25049C2 0.700488 1.55 0.250488 1 0.250488C0.45 0.250488 0 0.700488 0 1.25049C0 1.80049 0.45 2.25049 1 2.25049ZM5 6.25049H17C17.55 6.25049 18 5.80049 18 5.25049C18 4.70049 17.55 4.25049 17 4.25049H5C4.45 4.25049 4 4.70049 4 5.25049C4 5.80049 4.45 6.25049 5 6.25049ZM5 10.2505H17C17.55 10.2505 18 9.80049 18 9.25049C18 8.70049 17.55 8.25049 17 8.25049H5C4.45 8.25049 4 8.70049 4 9.25049C4 9.80049 4.45 10.2505 5 10.2505ZM4 1.25049C4 1.80049 4.45 2.25049 5 2.25049H17C17.55 2.25049 18 1.80049 18 1.25049C18 0.700488 17.55 0.250488 17 0.250488H5C4.45 0.250488 4 0.700488 4 1.25049ZM1 6.25049C1.55 6.25049 2 5.80049 2 5.25049C2 4.70049 1.55 4.25049 1 4.25049C0.45 4.25049 0 4.70049 0 5.25049C0 5.80049 0.45 6.25049 1 6.25049ZM1 10.2505C1.55 10.2505 2 9.80049 2 9.25049C2 8.70049 1.55 8.25049 1 8.25049C0.45 8.25049 0 8.70049 0 9.25049C0 9.80049 0.45 10.2505 1 10.2505ZM1 2.25049C1.55 2.25049 2 1.80049 2 1.25049C2 0.700488 1.55 0.250488 1 0.250488C0.45 0.250488 0 0.700488 0 1.25049C0 1.80049 0.45 2.25049 1 2.25049ZM5 6.25049H17C17.55 6.25049 18 5.80049 18 5.25049C18 4.70049 17.55 4.25049 17 4.25049H5C4.45 4.25049 4 4.70049 4 5.25049C4 5.80049 4.45 6.25049 5 6.25049ZM5 10.2505H17C17.55 10.2505 18 9.80049 18 9.25049C18 8.70049 17.55 8.25049 17 8.25049H5C4.45 8.25049 4 8.70049 4 9.25049C4 9.80049 4.45 10.2505 5 10.2505ZM4 1.25049C4 1.80049 4.45 2.25049 5 2.25049H17C17.55 2.25049 18 1.80049 18 1.25049C18 0.700488 17.55 0.250488 17 0.250488H5C4.45 0.250488 4 0.700488 4 1.25049Z" fill="#192434"/>
</svg>
