<svg width="35" height="35" viewBox="0 0 35 35" fill="none" xmlns="http://www.w3.org/2000/svg">
<rect y="0.406006" width="34.5728" height="34.5728" rx="17.2864" fill="url(#paint0_linear_9_6029)"/>
<path d="M23.9315 11.9399C23.7394 11.3733 23.2016 10.9699 22.5677 10.9699H20.1669V10.0096C20.1669 9.48139 19.7347 9.04922 19.2065 9.04922H15.3651C14.8369 9.04922 14.4047 9.48139 14.4047 10.0096V10.9699H12.0038C11.37 10.9699 10.8418 11.3733 10.6401 11.9399L8.74822 17.3851C8.68099 17.5868 8.64258 17.7981 8.64258 18.019V24.8951C8.64258 25.6922 9.28602 26.3356 10.0831 26.3356C10.8802 26.3356 11.5236 25.6922 11.5236 24.8951V24.4149H23.0479V24.8951C23.0479 25.6826 23.6914 26.3356 24.4885 26.3356C25.276 26.3356 25.929 25.6922 25.929 24.8951V18.019C25.929 17.8077 25.8906 17.5868 25.8234 17.3851L23.9315 11.9399ZM12.0038 21.5339C11.2067 21.5339 10.5633 20.8904 10.5633 20.0933C10.5633 19.2962 11.2067 18.6528 12.0038 18.6528C12.8009 18.6528 13.4444 19.2962 13.4444 20.0933C13.4444 20.8904 12.8009 21.5339 12.0038 21.5339ZM22.5677 21.5339C21.7707 21.5339 21.1272 20.8904 21.1272 20.0933C21.1272 19.2962 21.7707 18.6528 22.5677 18.6528C23.3648 18.6528 24.0083 19.2962 24.0083 20.0933C24.0083 20.8904 23.3648 21.5339 22.5677 21.5339ZM10.5633 16.7321L12.0038 12.4105H22.5677L24.0083 16.7321H10.5633Z" fill="white"/>
<defs>
<linearGradient id="paint0_linear_9_6029" x1="17.2864" y1="0.406006" x2="17.2864" y2="34.9788" gradientUnits="userSpaceOnUse">
<stop stop-color="#976E30"/>
<stop offset="1" stop-color="#682F05"/>
</linearGradient>
</defs>
</svg>
