<svg width="35" height="35" viewBox="0 0 35 35" fill="none" xmlns="http://www.w3.org/2000/svg">
<rect y="0.27066" width="34.5728" height="34.5728" rx="17.2864" fill="url(#paint0_linear_9_6024)"/>
<path d="M24.9681 8.91388H11.5231C10.4667 8.91388 9.60235 9.7782 9.60235 10.8346V18.5174C9.60235 20.6398 11.3214 22.3589 13.4438 22.3589H19.2059C21.3283 22.3589 23.0473 20.6398 23.0473 18.5174V15.6364H24.9681C26.0245 15.6364 26.8888 14.7721 26.8888 13.7157V10.8346C26.8888 9.7782 26.0245 8.91388 24.9681 8.91388ZM24.9681 13.7157H23.0473V10.8346H24.9681V13.7157ZM8.642 26.2003H24.0077C24.5359 26.2003 24.9681 25.7681 24.9681 25.2399C24.9681 24.7117 24.5359 24.2796 24.0077 24.2796H8.642C8.1138 24.2796 7.68164 24.7117 7.68164 25.2399C7.68164 25.7681 8.1138 26.2003 8.642 26.2003Z" fill="white"/>
<defs>
<linearGradient id="paint0_linear_9_6024" x1="17.2864" y1="0.27066" x2="17.2864" y2="34.8435" gradientUnits="userSpaceOnUse">
<stop stop-color="#93FF52"/>
<stop offset="1" stop-color="#189D3D"/>
</linearGradient>
</defs>
</svg>
