<svg width="30" height="22" viewBox="0 0 30 22" fill="none" xmlns="http://www.w3.org/2000/svg">
  <path d="M0.75 2C0.75 1.30964 1.30964 0.75 2 0.75H22C22.6904 0.75 23.25 1.30964 23.25 2V14.8621C23.25 15.6286 22.6286 16.25 21.8621 16.25H7.48276C3.76436 16.25 0.75 13.2356 0.75 9.51724V2Z" stroke="#1E4DFC" stroke-width="1.5"/>
  <path d="M0.75 3.75H28C28.6904 3.75 29.25 4.30964 29.25 5V20C29.25 20.6904 28.6904 21.25 28 21.25H7.48276C3.76436 21.25 0.75 18.2356 0.75 14.5172V3.75Z" fill="white"/>
  <path d="M0.75 3.75H28C28.6904 3.75 29.25 4.30964 29.25 5V20C29.25 20.6904 28.6904 21.25 28 21.25H7.48276C3.76436 21.25 0.75 18.2356 0.75 14.5172V3.75Z" fill="#193B67" fill-opacity="0.05"/>
  <path d="M0.75 3.75H28C28.6904 3.75 29.25 4.30964 29.25 5V20C29.25 20.6904 28.6904 21.25 28 21.25H7.48276C3.76436 21.25 0.75 18.2356 0.75 14.5172V3.75Z" stroke="#1E4DFC" stroke-width="1.5"/>
  <path d="M10 12.5L20 12.5" stroke="#1E4DFC" stroke-width="1.5" stroke-linecap="round" stroke-linejoin="round"/>
</svg>