<svg width="24" height="24" viewBox="0 0 24 24" fill="none" xmlns="http://www.w3.org/2000/svg">
<rect width="24" height="24" rx="12" fill="url(#paint0_linear_9_4449)"/>
<path d="M11.8663 11.2667C10.353 10.8733 9.86634 10.4667 9.86634 9.83333C9.86634 9.10667 10.5397 8.6 11.6663 8.6C12.613 8.6 13.0863 8.96 13.2597 9.53333C13.3397 9.8 13.5597 10 13.8397 10H14.0397C14.4797 10 14.793 9.56667 14.6397 9.15333C14.3597 8.36667 13.7063 7.71333 12.6663 7.46V7C12.6663 6.44667 12.2197 6 11.6663 6C11.113 6 10.6663 6.44667 10.6663 7V7.44C9.37301 7.72 8.33301 8.56 8.33301 9.84667C8.33301 11.3867 9.60634 12.1533 11.4663 12.6C13.133 13 13.4663 13.5867 13.4663 14.2067C13.4663 14.6667 13.1397 15.4 11.6663 15.4C10.5663 15.4 9.99967 15.0067 9.77967 14.4467C9.67967 14.1867 9.45301 14 9.17967 14H8.99301C8.54634 14 8.23301 14.4533 8.39967 14.8667C8.77967 15.7933 9.66634 16.34 10.6663 16.5533V17C10.6663 17.5533 11.113 18 11.6663 18C12.2197 18 12.6663 17.5533 12.6663 17V16.5667C13.9663 16.32 14.9997 15.5667 14.9997 14.2C14.9997 12.3067 13.3797 11.66 11.8663 11.2667Z" fill="white"/>
<defs>
<linearGradient id="paint0_linear_9_4449" x1="12" y1="0" x2="12" y2="24" gradientUnits="userSpaceOnUse">
<stop stop-color="#93FF52"/>
<stop offset="1" stop-color="#189D3D"/>
</linearGradient>
</defs>
</svg>
