<svg width="44" height="44" viewBox="0 0 44 44" fill="none" xmlns="http://www.w3.org/2000/svg">
<rect width="44" height="44" rx="22" fill="url(#paint0_linear_78_649)"/>
<path d="M7.65 13C7.65 12.2544 8.25442 11.65 9 11.65H29C29.7456 11.65 30.35 12.2544 30.35 13V25.8621C30.35 26.6838 29.6838 27.35 28.8621 27.35H14.4828C10.7091 27.35 7.65 24.2909 7.65 20.5172V13Z" stroke="white" stroke-width="1.3"/>
<path d="M7.65 14.65H35C35.7456 14.65 36.35 15.2544 36.35 16V31C36.35 31.7456 35.7456 32.35 35 32.35H14.4828C10.7091 32.35 7.65 29.2909 7.65 25.5172V14.65Z" fill="url(#paint1_linear_78_649)" stroke="white" stroke-width="1.3"/>
<path d="M22 19V28" stroke="white" stroke-width="1.3" stroke-linecap="round" stroke-linejoin="round"/>
<path d="M17 23.5L27 23.5" stroke="white" stroke-width="1.3" stroke-linecap="round" stroke-linejoin="round"/>
<defs>
<linearGradient id="paint0_linear_78_649" x1="22" y1="0" x2="22" y2="44" gradientUnits="userSpaceOnUse">
<stop stop-color="#93FF52"/>
<stop offset="1" stop-color="#189D3D"/>
</linearGradient>
<linearGradient id="paint1_linear_78_649" x1="22" y1="14" x2="22" y2="33" gradientUnits="userSpaceOnUse">
<stop stop-color="#93FF52"/>
<stop offset="1" stop-color="#189D3D"/>
</linearGradient>
</defs>
</svg>
