<svg width="30" height="30" viewBox="0 0 30 30" fill="none" xmlns="http://www.w3.org/2000/svg">
<rect width="30" height="30" rx="4" fill="#3861FB"/>
<path d="M8.33268 14.5833V17.9166C8.33268 18.6083 8.89102 19.1666 9.58268 19.1666C10.2743 19.1666 10.8327 18.6083 10.8327 17.9166V14.5833C10.8327 13.8916 10.2743 13.3333 9.58268 13.3333C8.89102 13.3333 8.33268 13.8916 8.33268 14.5833ZM13.3327 14.5833V17.9166C13.3327 18.6083 13.891 19.1666 14.5827 19.1666C15.2743 19.1666 15.8327 18.6083 15.8327 17.9166V14.5833C15.8327 13.8916 15.2743 13.3333 14.5827 13.3333C13.891 13.3333 13.3327 13.8916 13.3327 14.5833ZM7.91602 23.3333H21.2493C21.941 23.3333 22.4993 22.7749 22.4993 22.0833C22.4993 21.3916 21.941 20.8333 21.2493 20.8333H7.91602C7.22435 20.8333 6.66602 21.3916 6.66602 22.0833C6.66602 22.7749 7.22435 23.3333 7.91602 23.3333ZM18.3327 14.5833V17.9166C18.3327 18.6083 18.891 19.1666 19.5827 19.1666C20.2743 19.1666 20.8327 18.6083 20.8327 17.9166V14.5833C20.8327 13.8916 20.2743 13.3333 19.5827 13.3333C18.891 13.3333 18.3327 13.8916 18.3327 14.5833ZM13.8077 6.2416L7.22435 9.70827C6.88268 9.88327 6.66602 10.2416 6.66602 10.6249C6.66602 11.1999 7.13268 11.6666 7.70768 11.6666H21.466C22.0327 11.6666 22.4993 11.1999 22.4993 10.6249C22.4993 10.2416 22.2827 9.88327 21.941 9.70827L15.3577 6.2416C14.8743 5.98327 14.291 5.98327 13.8077 6.2416Z" fill="white"/>
</svg>
